<svg xmlns="http://www.w3.org/2000/svg" xmlns:xlink="http://www.w3.org/1999/xlink" width="500" zoomAndPan="magnify" viewBox="0 0 375 374.999991" height="500" preserveAspectRatio="xMidYMid meet" version="1.0"><defs><g/><clipPath id="ccdadf7b5c"><path d="M 102.09375 166.121094 L 142.378906 166.121094 L 142.378906 209.066406 L 102.09375 209.066406 Z M 102.09375 166.121094 " clip-rule="nonzero"/></clipPath></defs><rect x="-37.5" width="450" fill="#ffffff" y="-37.499999" height="449.999989" fill-opacity="1"/><rect x="-37.5" width="450" fill="#ffffff" y="-37.499999" height="449.999989" fill-opacity="1"/><g clip-path="url(#ccdadf7b5c)"><path fill="#000000" d="M 138.707031 179.769531 C 136.410156 177.496094 133.242188 176.070312 129.78125 176.070312 L 112.132812 176.070312 L 112.132812 185.9375 C 111.113281 185.558594 110.203125 184.964844 109.457031 184.210938 C 108.085938 182.8125 107.253906 180.964844 107.253906 178.894531 C 107.253906 176.824219 108.085938 174.9375 109.457031 173.578125 C 110.789062 172.195312 112.667969 171.355469 114.71875 171.355469 L 129.78125 171.355469 L 129.78125 166.125 L 114.71875 166.125 C 111.222656 166.125 108.085938 167.558594 105.792969 169.878906 C 103.496094 172.195312 102.078125 175.347656 102.078125 178.894531 C 102.078125 182.390625 103.496094 185.59375 105.792969 187.914062 C 108.085938 190.1875 111.207031 191.664062 114.71875 191.664062 L 129.78125 191.664062 L 129.78125 186.402344 L 117.320312 186.402344 L 117.320312 181.300781 L 129.789062 181.300781 C 131.835938 181.300781 133.671875 182.140625 135.050781 183.5 C 136.386719 184.898438 137.226562 186.746094 137.226562 188.8125 C 137.226562 190.882812 136.394531 192.773438 135.050781 194.128906 C 133.664062 195.511719 131.835938 196.355469 129.789062 196.355469 L 112.140625 196.355469 L 112.140625 209.0625 L 117.320312 209.0625 L 117.320312 201.558594 L 129.789062 201.558594 C 133.25 201.558594 136.417969 200.125 138.714844 197.804688 C 140.96875 195.488281 142.378906 192.335938 142.378906 188.789062 C 142.378906 185.285156 140.957031 182.089844 138.707031 179.769531 Z M 138.707031 179.769531 " fill-opacity="1" fill-rule="nonzero"/></g><g fill="#000000" fill-opacity="1"><g transform="translate(151.437578, 183.61719)"><g><path d="M 8.921875 -16.015625 C 10.367188 -16.015625 11.625 -15.773438 12.6875 -15.296875 C 13.757812 -14.816406 14.582031 -14.128906 15.15625 -13.234375 C 15.738281 -12.335938 16.03125 -11.289062 16.03125 -10.09375 C 16.03125 -8.882812 15.738281 -7.835938 15.15625 -6.953125 C 14.582031 -6.066406 13.757812 -5.382812 12.6875 -4.90625 C 11.625 -4.425781 10.367188 -4.1875 8.921875 -4.1875 L 6.125 -4.1875 L 6.125 0 L 1.59375 0 L 1.59375 -16.015625 Z M 8.640625 -7.75 C 9.578125 -7.75 10.28125 -7.953125 10.75 -8.359375 C 11.21875 -8.765625 11.453125 -9.34375 11.453125 -10.09375 C 11.453125 -10.832031 11.21875 -11.40625 10.75 -11.8125 C 10.28125 -12.226562 9.578125 -12.4375 8.640625 -12.4375 L 6.125 -12.4375 L 6.125 -7.75 Z M 8.640625 -7.75 "/></g></g></g><g fill="#000000" fill-opacity="1"><g transform="translate(171.817687, 183.61719)"><g><path d="M 8.59375 -4.25 L 6.125 -4.25 L 6.125 0 L 1.59375 0 L 1.59375 -16.015625 L 8.921875 -16.015625 C 10.367188 -16.015625 11.625 -15.773438 12.6875 -15.296875 C 13.757812 -14.816406 14.582031 -14.128906 15.15625 -13.234375 C 15.738281 -12.335938 16.03125 -11.289062 16.03125 -10.09375 C 16.03125 -8.925781 15.757812 -7.910156 15.21875 -7.046875 C 14.675781 -6.191406 13.90625 -5.519531 12.90625 -5.03125 L 16.359375 0 L 11.5 0 Z M 11.453125 -10.09375 C 11.453125 -10.832031 11.21875 -11.40625 10.75 -11.8125 C 10.28125 -12.226562 9.578125 -12.4375 8.640625 -12.4375 L 6.125 -12.4375 L 6.125 -7.75 L 8.640625 -7.75 C 9.578125 -7.75 10.28125 -7.953125 10.75 -8.359375 C 11.21875 -8.765625 11.453125 -9.34375 11.453125 -10.09375 Z M 11.453125 -10.09375 "/></g></g></g><g fill="#000000" fill-opacity="1"><g transform="translate(192.266405, 183.61719)"><g><path d="M 1.59375 -16.015625 L 6.125 -16.015625 L 6.125 0 L 1.59375 0 Z M 1.59375 -16.015625 "/></g></g></g><g fill="#000000" fill-opacity="1"><g transform="translate(203.543408, 183.61719)"><g><path d="M 16.84375 -16.015625 L 16.84375 0 L 13.109375 0 L 6.03125 -8.53125 L 6.03125 0 L 1.59375 0 L 1.59375 -16.015625 L 5.328125 -16.015625 L 12.390625 -7.484375 L 12.390625 -16.015625 Z M 16.84375 -16.015625 "/></g></g></g><g fill="#000000" fill-opacity="1"><g transform="translate(225.50169, 183.61719)"><g><path d="M 5.015625 -12.421875 L 0.09375 -12.421875 L 0.09375 -16.015625 L 14.4375 -16.015625 L 14.4375 -12.421875 L 9.53125 -12.421875 L 9.53125 0 L 5.015625 0 Z M 5.015625 -12.421875 "/></g></g></g><g fill="#000000" fill-opacity="1"><g transform="translate(243.548844, 183.61719)"><g><path d="M 10.171875 -5.734375 L 10.171875 0 L 5.65625 0 L 5.65625 -5.8125 L -0.453125 -16.015625 L 4.328125 -16.015625 L 8.125 -9.65625 L 11.921875 -16.015625 L 16.3125 -16.015625 Z M 10.171875 -5.734375 "/></g></g></g><g fill="#000000" fill-opacity="1"><g transform="translate(151.437578, 206.914046)"><g><path d="M 7.234375 0.3125 C 5.929688 0.3125 4.671875 0.15625 3.453125 -0.15625 C 2.234375 -0.476562 1.242188 -0.90625 0.484375 -1.4375 L 1.96875 -4.78125 C 2.6875 -4.3125 3.515625 -3.929688 4.453125 -3.640625 C 5.398438 -3.347656 6.332031 -3.203125 7.25 -3.203125 C 8.988281 -3.203125 9.859375 -3.632812 9.859375 -4.5 C 9.859375 -4.957031 9.609375 -5.296875 9.109375 -5.515625 C 8.617188 -5.742188 7.820312 -5.976562 6.71875 -6.21875 C 5.519531 -6.476562 4.515625 -6.753906 3.703125 -7.046875 C 2.898438 -7.347656 2.207031 -7.828125 1.625 -8.484375 C 1.039062 -9.140625 0.75 -10.023438 0.75 -11.140625 C 0.75 -12.117188 1.015625 -13 1.546875 -13.78125 C 2.085938 -14.5625 2.882812 -15.179688 3.9375 -15.640625 C 5 -16.097656 6.300781 -16.328125 7.84375 -16.328125 C 8.894531 -16.328125 9.929688 -16.207031 10.953125 -15.96875 C 11.972656 -15.738281 12.875 -15.394531 13.65625 -14.9375 L 12.265625 -11.578125 C 10.734375 -12.398438 9.253906 -12.8125 7.828125 -12.8125 C 6.921875 -12.8125 6.257812 -12.675781 5.84375 -12.40625 C 5.4375 -12.144531 5.234375 -11.800781 5.234375 -11.375 C 5.234375 -10.945312 5.476562 -10.625 5.96875 -10.40625 C 6.457031 -10.195312 7.242188 -9.976562 8.328125 -9.75 C 9.546875 -9.488281 10.554688 -9.207031 11.359375 -8.90625 C 12.160156 -8.613281 12.851562 -8.140625 13.4375 -7.484375 C 14.019531 -6.835938 14.3125 -5.957031 14.3125 -4.84375 C 14.3125 -3.882812 14.046875 -3.015625 13.515625 -2.234375 C 12.984375 -1.460938 12.179688 -0.84375 11.109375 -0.375 C 10.046875 0.0820312 8.753906 0.3125 7.234375 0.3125 Z M 7.234375 0.3125 "/></g></g></g><g fill="#000000" fill-opacity="1"><g transform="translate(169.759199, 206.914046)"><g><path d="M 7.78125 -5.8125 L 6.078125 -4 L 6.078125 0 L 1.59375 0 L 1.59375 -16.015625 L 6.078125 -16.015625 L 6.078125 -9.359375 L 12.28125 -16.015625 L 17.265625 -16.015625 L 10.734375 -8.921875 L 17.609375 0 L 12.359375 0 Z M 7.78125 -5.8125 "/></g></g></g><g fill="#000000" fill-opacity="1"><g transform="translate(190.482384, 206.914046)"><g><path d="M 14.453125 -3.5 L 14.453125 0 L 1.59375 0 L 1.59375 -16.015625 L 14.15625 -16.015625 L 14.15625 -12.515625 L 6.078125 -12.515625 L 6.078125 -9.8125 L 13.203125 -9.8125 L 13.203125 -6.421875 L 6.078125 -6.421875 L 6.078125 -3.5 Z M 14.453125 -3.5 "/></g></g></g><g fill="#000000" fill-opacity="1"><g transform="translate(209.375809, 206.914046)"><g><path d="M 5.015625 -12.421875 L 0.09375 -12.421875 L 0.09375 -16.015625 L 14.4375 -16.015625 L 14.4375 -12.421875 L 9.53125 -12.421875 L 9.53125 0 L 5.015625 0 Z M 5.015625 -12.421875 "/></g></g></g><g fill="#000000" fill-opacity="1"><g transform="translate(227.422963, 206.914046)"><g><path d="M 9.578125 0.3125 C 7.898438 0.3125 6.394531 -0.0390625 5.0625 -0.75 C 3.726562 -1.457031 2.679688 -2.441406 1.921875 -3.703125 C 1.160156 -4.972656 0.78125 -6.40625 0.78125 -8 C 0.78125 -9.601562 1.160156 -11.035156 1.921875 -12.296875 C 2.679688 -13.566406 3.726562 -14.554688 5.0625 -15.265625 C 6.394531 -15.972656 7.898438 -16.328125 9.578125 -16.328125 C 11.046875 -16.328125 12.363281 -16.066406 13.53125 -15.546875 C 14.707031 -15.035156 15.6875 -14.289062 16.46875 -13.3125 L 13.59375 -10.703125 C 12.550781 -11.953125 11.289062 -12.578125 9.8125 -12.578125 C 8.945312 -12.578125 8.171875 -12.382812 7.484375 -12 C 6.804688 -11.625 6.28125 -11.085938 5.90625 -10.390625 C 5.539062 -9.703125 5.359375 -8.90625 5.359375 -8 C 5.359375 -7.101562 5.539062 -6.304688 5.90625 -5.609375 C 6.28125 -4.921875 6.804688 -4.382812 7.484375 -4 C 8.171875 -3.625 8.945312 -3.4375 9.8125 -3.4375 C 11.289062 -3.4375 12.550781 -4.0625 13.59375 -5.3125 L 16.46875 -2.703125 C 15.6875 -1.722656 14.707031 -0.972656 13.53125 -0.453125 C 12.363281 0.0546875 11.046875 0.3125 9.578125 0.3125 Z M 9.578125 0.3125 "/></g></g></g><g fill="#000000" fill-opacity="1"><g transform="translate(247.825942, 206.914046)"><g><path d="M 16.84375 -16.015625 L 16.84375 0 L 12.3125 0 L 12.3125 -6.25 L 6.125 -6.25 L 6.125 0 L 1.59375 0 L 1.59375 -16.015625 L 6.125 -16.015625 L 6.125 -10 L 12.3125 -10 L 12.3125 -16.015625 Z M 16.84375 -16.015625 "/></g></g></g></svg>